<svg width="30" height="30" viewBox="0 0 30 30" fill="none" xmlns="http://www.w3.org/2000/svg">
<path d="M0 15C0 17.9667 0.879735 20.8668 2.52796 23.3335C4.17618 25.8003 6.51886 27.7229 9.25975 28.8582C12.0006 29.9935 15.0166 30.2905 17.9263 29.7118C20.8361 29.133 23.5088 27.7044 25.6066 25.6066C27.7044 23.5088 29.133 20.8361 29.7118 17.9263C30.2905 15.0166 29.9935 12.0006 28.8582 9.25975C27.7229 6.51886 25.8003 4.17618 23.3335 2.52796C20.8668 0.879735 17.9667 0 15 0C11.0217 0 7.20644 1.58035 4.3934 4.3934C1.58035 7.20644 0 11.0217 0 15ZM6.42857 13.9286H19.4464L13.4679 7.92107L15 6.42857L23.5714 15L15 23.5714L13.4679 22.0425L19.4464 16.0714H6.42857V13.9286Z" fill="#A58EAD"/>
</svg>
