<svg width="10" height="16" viewBox="0 0 10 16" fill="none" xmlns="http://www.w3.org/2000/svg">
<path d="M8.66562 4C8.29688 4 8 4.29688 8 4.66563V11.3313C8 13.1719 6.50938 14.6656 4.66563 14.6656C2.82188 14.6656 1.33125 13.1719 1.33125 11.3313V3.33125C1.33125 2.22813 2.225 1.33125 3.33125 1.33125C4.4375 1.33125 5.33125 2.22813 5.33125 3.33125V10C5.33125 10.3687 5.03125 10.6656 4.66563 10.6656C4.3 10.6656 4 10.3687 4 10V4.66563C4 4.29688 3.7 4 3.33437 4C2.96562 4 2.66875 4.29688 2.66875 4.66563V10C2.66875 11.1062 3.5625 12 4.66875 12C5.775 12 6.66875 11.1062 6.66875 10V3.33437C6.66563 1.49375 5.17188 0 3.33125 0C1.49063 0 0 1.49375 0 3.33437V11.3344C0 13.9125 2.09063 16 4.66563 16C7.24063 16 9.33125 13.9094 9.33125 11.3344V4.66563C9.33125 4.29688 9.03437 4 8.66562 4Z" fill="#908E90"/>
</svg>
