<svg width="16" height="16" viewBox="0 0 16 16" fill="none" xmlns="http://www.w3.org/2000/svg">
<path d="M14.5 8C14.5 6.27609 13.8152 4.62279 12.5962 3.40381C11.3772 2.18482 9.72391 1.5 8 1.5C6.27609 1.5 4.62279 2.18482 3.40381 3.40381C2.18482 4.62279 1.5 6.27609 1.5 8C1.5 9.72391 2.18482 11.3772 3.40381 12.5962C4.62279 13.8152 6.27609 14.5 8 14.5C9.72391 14.5 11.3772 13.8152 12.5962 12.5962C13.8152 11.3772 14.5 9.72391 14.5 8ZM0 8C0 5.87827 0.842855 3.84344 2.34315 2.34315C3.84344 0.842855 5.87827 0 8 0C10.1217 0 12.1566 0.842855 13.6569 2.34315C15.1571 3.84344 16 5.87827 16 8C16 10.1217 15.1571 12.1566 13.6569 13.6569C12.1566 15.1571 10.1217 16 8 16C5.87827 16 3.84344 15.1571 2.34315 13.6569C0.842855 12.1566 0 10.1217 0 8ZM5.54063 9.98125C6.00938 10.4688 6.825 11 8 11C9.175 11 9.99063 10.4688 10.4594 9.98125C10.7469 9.68125 11.2219 9.67188 11.5188 9.95938C11.8156 10.2469 11.8281 10.7219 11.5406 11.0188C10.85 11.7375 9.66562 12.5 8 12.5C6.33437 12.5 5.15 11.7375 4.45937 11.0188C4.17188 10.7188 4.18125 10.2438 4.48125 9.95938C4.78125 9.675 5.25625 9.68125 5.54063 9.98125ZM4.5 6.5C4.5 6.23478 4.60536 5.98043 4.79289 5.79289C4.98043 5.60536 5.23478 5.5 5.5 5.5C5.76522 5.5 6.01957 5.60536 6.20711 5.79289C6.39464 5.98043 6.5 6.23478 6.5 6.5C6.5 6.76522 6.39464 7.01957 6.20711 7.20711C6.01957 7.39464 5.76522 7.5 5.5 7.5C5.23478 7.5 4.98043 7.39464 4.79289 7.20711C4.60536 7.01957 4.5 6.76522 4.5 6.5ZM10.5 5.5C10.7652 5.5 11.0196 5.60536 11.2071 5.79289C11.3946 5.98043 11.5 6.23478 11.5 6.5C11.5 6.76522 11.3946 7.01957 11.2071 7.20711C11.0196 7.39464 10.7652 7.5 10.5 7.5C10.2348 7.5 9.98043 7.39464 9.79289 7.20711C9.60536 7.01957 9.5 6.76522 9.5 6.5C9.5 6.23478 9.60536 5.98043 9.79289 5.79289C9.98043 5.60536 10.2348 5.5 10.5 5.5Z" fill="#908E90"/>
</svg>
