<svg width="21" height="25" viewBox="0 0 21 25" fill="none" xmlns="http://www.w3.org/2000/svg">
<path d="M20.1429 21.9286C20.1429 22.4022 19.9547 22.8564 19.6198 23.1913C19.2849 23.5261 18.8307 23.7143 18.3571 23.7143H2.28571C1.81211 23.7143 1.35791 23.5261 1.02302 23.1913C0.688137 22.8564 0.5 22.4022 0.5 21.9286V2.28571C0.5 1.81211 0.688137 1.35791 1.02302 1.02302C1.35791 0.688137 1.81211 0.5 2.28571 0.5H13.8929L20.1429 6.75V21.9286Z" stroke="#757575" stroke-linecap="round" stroke-linejoin="round"/>
<path d="M9.07681 8.1268C8.87317 8.1268 8.67786 8.2077 8.53386 8.3517C8.38986 8.4957 8.30896 8.69101 8.30896 8.89466V11.0518H6.1536C5.95026 11.0518 5.75522 11.1325 5.61127 11.2761C5.46732 11.4197 5.38622 11.6145 5.38574 11.8179V14.3089C5.38574 14.7339 5.73038 15.0768 6.1536 15.0768H8.30896V17.2322C8.30896 17.6572 8.6536 18 9.07681 18H11.5679C11.7715 18 11.9668 17.9191 12.1108 17.7751C12.2548 17.6311 12.3357 17.4358 12.3357 17.2322V15.0768H14.4911C14.6947 15.0768 14.8901 14.9959 15.0341 14.8519C15.1781 14.7079 15.259 14.5126 15.259 14.3089V11.8179C15.259 11.6142 15.1781 11.4189 15.0341 11.2749C14.8901 11.1309 14.6947 11.05 14.4911 11.05H12.3357V8.89644C12.3357 8.6928 12.2548 8.49749 12.1108 8.35349C11.9668 8.20949 11.7715 8.12859 11.5679 8.12859L9.07681 8.1268Z" stroke="#757575" stroke-linecap="round" stroke-linejoin="round"/>
</svg>
