<svg width="14" height="14" viewBox="0 0 14 14" fill="none" xmlns="http://www.w3.org/2000/svg">
<path d="M11.6667 1H2.33333C1.59695 1 1 1.59695 1 2.33333V11.6667C1 12.403 1.59695 13 2.33333 13H11.6667C12.403 13 13 12.403 13 11.6667V2.33333C13 1.59695 12.403 1 11.6667 1Z" stroke="#908E90" stroke-width="2" stroke-linecap="round" stroke-linejoin="round"/>
<path d="M8.99984 6.33335C9.73622 6.33335 10.3332 5.7364 10.3332 5.00002C10.3332 4.26364 9.73622 3.66669 8.99984 3.66669C8.26346 3.66669 7.6665 4.26364 7.6665 5.00002C7.6665 5.7364 8.26346 6.33335 8.99984 6.33335Z" stroke="#908E90" stroke-width="2" stroke-linecap="round" stroke-linejoin="round"/>
<path d="M1 11L5 7L11 13" stroke="#908E90" stroke-width="2" stroke-linecap="round" stroke-linejoin="round"/>
</svg>
