<svg width="31" height="34" viewBox="0 0 31 34" fill="none" xmlns="http://www.w3.org/2000/svg">
<path d="M15.8478 21.0014V33.2803H4.09596e-07C-0.000491461 31.3451 0.442028 29.4355 1.29365 27.6977C2.14527 25.96 3.3834 24.4403 4.91315 23.2551C6.4429 22.0698 8.22368 21.2505 10.119 20.8598C12.0144 20.4692 13.974 20.5177 15.8478 21.0014ZM12.6782 19.0173C7.42467 19.0173 3.16955 14.7622 3.16955 9.50865C3.16955 4.25512 7.42467 0 12.6782 0C17.9317 0 22.1869 4.25512 22.1869 9.50865C22.1869 14.7622 17.9317 19.0173 12.6782 19.0173ZM22.1869 25.3564V20.6021H25.3564V25.3564H30.1107V28.526H25.3564V33.2803H22.1869V28.526H17.4325V25.3564H22.1869Z" fill="#908E90"/>
</svg>
