<svg width="50" height="50" viewBox="0 0 50 50" fill="none" xmlns="http://www.w3.org/2000/svg">
<g clip-path="url(#clip0_120_967)">
<g clip-path="url(#clip1_120_967)">
<path d="M32.1074 18.0556C31.4672 18.0556 30.9518 18.571 30.9518 19.2112V30.7834C30.9518 33.979 28.3639 36.5723 25.163 36.5723C21.962 36.5723 19.3741 33.979 19.3741 30.7834V16.8945C19.3741 14.9794 20.9258 13.4223 22.8463 13.4223C24.7669 13.4223 26.3186 14.9794 26.3186 16.8945V28.4722C26.3186 29.1124 25.7977 29.6278 25.163 29.6278C24.5282 29.6278 24.0074 29.1124 24.0074 28.4722V19.2112C24.0074 18.571 23.4865 18.0556 22.8518 18.0556C22.2116 18.0556 21.6962 18.571 21.6962 19.2112V28.4722C21.6962 30.3928 23.2478 31.9444 25.1684 31.9444C27.089 31.9444 28.6406 30.3928 28.6406 28.4722V16.9C28.6352 13.7044 26.0419 11.1111 22.8463 11.1111C19.6508 11.1111 17.0629 13.7044 17.0629 16.9V30.7888C17.0629 35.2648 20.6925 38.8889 25.163 38.8889C29.6335 38.8889 33.263 35.2593 33.263 30.7888V19.2112C33.263 18.571 32.7476 18.0556 32.1074 18.0556Z" fill="#9747FF"/>
</g>
</g>
<circle cx="25" cy="25" r="24.25" stroke="#9747FF" stroke-width="1.5"/>
<defs>
<clipPath id="clip0_120_967">
<rect width="27.7778" height="27.7778" fill="white" transform="translate(11.1113 11.1111)"/>
</clipPath>
<clipPath id="clip1_120_967">
<rect width="27.7778" height="27.7778" fill="white" transform="translate(11.1113 11.1111)"/>
</clipPath>
</defs>
</svg>
