<svg width="28" height="28" viewBox="0 0 28 28" fill="none" xmlns="http://www.w3.org/2000/svg">
<g clip-path="url(#clip0_120_962)">
<path d="M14.3137 2.83911C14.0638 2.83961 13.8243 2.93859 13.647 3.11457L0.278943 16.4502C0.190064 16.5388 0.119646 16.6442 0.0717663 16.7602C0.0238869 16.8763 -0.00050326 17.0006 7.87024e-06 17.1261V17.2025C7.87024e-06 16.8287 0.241906 16.4988 0.59723 16.3819L9.01737 13.6991C9.44818 13.5612 9.83958 13.3219 10.1586 13.0012C10.4777 12.6806 10.715 12.288 10.8507 11.8565L13.5336 3.44559C13.591 3.26989 13.7023 3.11673 13.8516 3.00786C14.001 2.89899 14.1809 2.83995 14.3657 2.83911H14.3137ZM7.87024e-06 17.2025V23.044C7.87024e-06 24.0903 0.848387 24.9386 1.89468 24.9386H25.8831C26.9294 24.9386 27.7778 24.0903 27.7778 23.044V4.73379C27.7778 3.68749 26.9294 2.83911 25.8831 2.83911H14.3657V3.41781L14.4676 14.831C14.4792 16.191 13.3542 17.3079 11.9942 17.3079L7.87024e-06 17.2025ZM13.8889 4.2361L11.4028 12.0312C11.2389 12.5507 10.9527 13.0245 10.5682 13.4104C10.1837 13.7963 9.71219 14.0842 9.19329 14.25L1.42015 16.728H11.9942C13.0417 16.728 13.8901 15.8785 13.8889 14.831V4.2361ZM1.89468 5.36457C0.84723 5.36457 -0.00114954 6.21411 7.87024e-06 7.26041V15.9097L10.5729 5.36457H1.89468Z" fill="#9747FF"/>
</g>
<defs>
<clipPath id="clip0_120_962">
<rect width="27.7778" height="27.7778" fill="white"/>
</clipPath>
</defs>
</svg>
