<svg width="50" height="50" viewBox="0 0 50 50" fill="none" xmlns="http://www.w3.org/2000/svg">
<g clip-path="url(#clip0_120_961)">
<path d="M25.4247 13.9502C25.1749 13.9507 24.9354 14.0497 24.7581 14.2257L11.39 27.5613C11.3011 27.65 11.2307 27.7553 11.1828 27.8714C11.1349 27.9874 11.1106 28.1117 11.1111 28.2373V28.3137C11.1111 27.9398 11.353 27.6099 11.7083 27.493L20.1284 24.8102C20.5592 24.6723 20.9506 24.433 21.2697 24.1123C21.5887 23.7917 21.8261 23.3991 21.9618 22.9676L24.6446 14.5567C24.702 14.381 24.8133 14.2278 24.9627 14.119C25.1121 14.0101 25.292 13.9511 25.4768 13.9502H25.4247ZM11.1111 28.3137V34.1551C11.1111 35.2014 11.9594 36.0498 13.0057 36.0498H36.9942C38.0405 36.0498 38.8888 35.2014 38.8888 34.1551V15.8449C38.8888 14.7986 38.0405 13.9502 36.9942 13.9502H25.4768V14.5289L25.5787 25.9421C25.5902 27.3021 24.4652 28.419 23.1053 28.419L11.1111 28.3137ZM25 15.3472L22.5138 23.1424C22.3499 23.6619 22.0637 24.1356 21.6792 24.5215C21.2948 24.9074 20.8232 25.1953 20.3043 25.3611L12.5312 27.8391H23.1053C24.1527 27.8391 25.0011 26.9896 25 25.9421V15.3472ZM13.0057 16.4757C11.9583 16.4757 11.1099 17.3252 11.1111 18.3715V27.0208L21.684 16.4757H13.0057Z" fill="#9747FF"/>
</g>
<circle cx="25" cy="25" r="24.5" stroke="#9747FF"/>
<defs>
<clipPath id="clip0_120_961">
<rect width="27.7778" height="27.7778" fill="white" transform="translate(11.1111 11.1111)"/>
</clipPath>
</defs>
</svg>
