<svg width="50" height="50" viewBox="0 0 50 50" fill="none" xmlns="http://www.w3.org/2000/svg">
<g clip-path="url(#clip0_123_2128)">
<path d="M37.1316 10.7176L39.1395 8.32467C37.1998 6.6829 34.9885 5.39228 32.605 4.51093L31.5369 7.44467C33.578 8.20182 35.4713 9.30943 37.1316 10.7176Z" fill="#9747FF"/>
<path d="M43.4531 21.875L46.5276 21.23C46.0954 18.7334 45.2294 16.3318 43.9687 14.1339L41.2635 15.625C42.3433 17.5688 43.0837 19.6824 43.4531 21.875Z" fill="#9747FF"/>
<path d="M31.5369 42.5553L32.605 45.4891C34.9885 44.6077 37.1998 43.3171 39.1395 41.6753L37.1316 39.2823C35.4713 40.6906 33.578 41.7982 31.5369 42.5553Z" fill="#9747FF"/>
<path d="M41.2635 34.375L43.9687 35.9375C45.2301 33.7144 46.0962 31.2892 46.5284 28.77L43.4531 28.228C43.0834 30.388 42.3427 32.4677 41.2635 34.375Z" fill="#9747FF"/>
<path d="M25 46.875V3.125C19.1984 3.125 13.6344 5.42968 9.53204 9.53204C5.42968 13.6344 3.125 19.1984 3.125 25C3.125 30.8016 5.42968 36.3656 9.53204 40.468C13.6344 44.5703 19.1984 46.875 25 46.875Z" fill="#9747FF"/>
</g>
<defs>
<clipPath id="clip0_123_2128">
<rect width="50" height="50" fill="white"/>
</clipPath>
</defs>
</svg>
