<svg width="22" height="20" viewBox="0 0 22 20" fill="none" xmlns="http://www.w3.org/2000/svg">
<path d="M8 8.00003C6.9 8.00003 5.95833 7.60836 5.175 6.82503C4.39167 6.04169 4 5.10003 4 4.00003C4 2.90003 4.39167 1.95836 5.175 1.17503C5.95833 0.391692 6.9 2.5641e-05 8 2.5641e-05C9.1 2.5641e-05 10.0417 0.391692 10.825 1.17503C11.6083 1.95836 12 2.90003 12 4.00003C12 5.10003 11.6083 6.04169 10.825 6.82503C10.0417 7.60836 9.1 8.00003 8 8.00003ZM14 8.00003C13.8167 8.00003 13.5833 7.97936 13.3 7.93803C13.0167 7.89669 12.7833 7.85069 12.6 7.80003C13.05 7.26669 13.396 6.67503 13.638 6.02503C13.88 5.37503 14.0007 4.70003 14 4.00003C13.9993 3.30003 13.8783 2.62503 13.637 1.97503C13.3957 1.32503 13.05 0.733359 12.6 0.200026C12.8333 0.116692 13.0667 0.062359 13.3 0.0370256C13.5333 0.0116923 13.7667 -0.000641026 14 2.5641e-05C15.1 2.5641e-05 16.0417 0.391692 16.825 1.17503C17.6083 1.95836 18 2.90003 18 4.00003C18 5.10003 17.6083 6.04169 16.825 6.82503C16.0417 7.60836 15.1 8.00003 14 8.00003ZM17 20C15.6167 20 14.4377 19.5124 13.463 18.537C12.4883 17.5617 12.0007 16.3827 12 15C12 13.6 12.4877 12.4167 13.463 11.45C14.4383 10.4834 15.6173 10 17 10C18.4 10 19.5833 10.4834 20.55 11.45C21.5167 12.4167 22 13.6 22 15C22 16.3834 21.5167 17.5627 20.55 18.538C19.5833 19.5134 18.4 20.0007 17 20ZM16.3 17.25L19.825 13.7L19.125 13L16.3 15.825L14.875 14.4L14.175 15.125L16.3 17.25ZM0 16V13.2C0 12.6334 0.146 12.1127 0.438 11.638C0.73 11.1634 1.11733 10.8007 1.6 10.55C2.63333 10.0334 3.68333 9.64603 4.75 9.38803C5.81667 9.13002 6.9 9.00069 8 9.00003C8.75 9.00003 9.49167 9.05836 10.225 9.17503C10.9583 9.29169 11.6917 9.47503 12.425 9.72503C11.525 10.5084 10.875 11.4544 10.475 12.563C10.075 13.6717 9.94167 14.8174 10.075 16H0Z" fill="#9747FF"/>
</svg>
