<svg width="20" height="20" viewBox="0 0 20 20" fill="none" xmlns="http://www.w3.org/2000/svg">
<path d="M18.75 0H0.78125C0.349121 0 0 0.349121 0 0.78125V18.75C0 19.1821 0.349121 19.5312 0.78125 19.5312H18.75C19.1821 19.5312 19.5312 19.1821 19.5312 18.75V0.78125C19.5312 0.349121 19.1821 0 18.75 0ZM6.25 15.4297C6.25 15.5371 6.16211 15.625 6.05469 15.625H4.10156C3.99414 15.625 3.90625 15.5371 3.90625 15.4297V4.10156C3.90625 3.99414 3.99414 3.90625 4.10156 3.90625H6.05469C6.16211 3.90625 6.25 3.99414 6.25 4.10156V15.4297ZM10.9375 8.59375C10.9375 8.70117 10.8496 8.78906 10.7422 8.78906H8.78906C8.68164 8.78906 8.59375 8.70117 8.59375 8.59375V4.10156C8.59375 3.99414 8.68164 3.90625 8.78906 3.90625H10.7422C10.8496 3.90625 10.9375 3.99414 10.9375 4.10156V8.59375ZM15.625 10.3516C15.625 10.459 15.5371 10.5469 15.4297 10.5469H13.4766C13.3691 10.5469 13.2812 10.459 13.2812 10.3516V4.10156C13.2812 3.99414 13.3691 3.90625 13.4766 3.90625H15.4297C15.5371 3.90625 15.625 3.99414 15.625 4.10156V10.3516Z" fill="#9747FF"/>
</svg>
